<mxfile host="app.diagrams.net" agent="Mozilla/5.0 (Windows NT 10.0; Win64; x64; rv:139.0) Gecko/20100101 Firefox/139.0" version="27.0.6" pages="2">
  <diagram id="NYRPGMJIB-0HS8ujVfy6" name="v1.0.0">
    <mxGraphModel dx="983" dy="543" grid="0" gridSize="10" guides="1" tooltips="1" connect="1" arrows="1" fold="1" page="1" pageScale="1" pageWidth="827" pageHeight="1169" math="0" shadow="0">
      <root>
        <mxCell id="0" />
        <mxCell id="1" parent="0" />
        <mxCell id="3wDLvt-2hIB0-m5J7Vgi-11" style="edgeStyle=orthogonalEdgeStyle;rounded=0;orthogonalLoop=1;jettySize=auto;html=1;entryX=1;entryY=0.75;entryDx=0;entryDy=0;exitX=0.5;exitY=1;exitDx=0;exitDy=0;" parent="1" source="3wDLvt-2hIB0-m5J7Vgi-1" target="3wDLvt-2hIB0-m5J7Vgi-6" edge="1">
          <mxGeometry relative="1" as="geometry" />
        </mxCell>
        <mxCell id="3wDLvt-2hIB0-m5J7Vgi-12" value="hasConstraint" style="edgeLabel;html=1;align=center;verticalAlign=middle;resizable=0;points=[];" parent="3wDLvt-2hIB0-m5J7Vgi-11" connectable="0" vertex="1">
          <mxGeometry x="0.0617" y="2" relative="1" as="geometry">
            <mxPoint x="-10" y="-2" as="offset" />
          </mxGeometry>
        </mxCell>
        <mxCell id="3wDLvt-2hIB0-m5J7Vgi-18" style="edgeStyle=orthogonalEdgeStyle;rounded=0;orthogonalLoop=1;jettySize=auto;html=1;entryX=0.5;entryY=1;entryDx=0;entryDy=0;" parent="1" source="3wDLvt-2hIB0-m5J7Vgi-1" target="3wDLvt-2hIB0-m5J7Vgi-5" edge="1">
          <mxGeometry relative="1" as="geometry" />
        </mxCell>
        <mxCell id="3wDLvt-2hIB0-m5J7Vgi-19" value="hasMatrix" style="edgeLabel;html=1;align=center;verticalAlign=middle;resizable=0;points=[];" parent="3wDLvt-2hIB0-m5J7Vgi-18" connectable="0" vertex="1">
          <mxGeometry x="0.4844" y="-1" relative="1" as="geometry">
            <mxPoint as="offset" />
          </mxGeometry>
        </mxCell>
        <mxCell id="3wDLvt-2hIB0-m5J7Vgi-25" value="0..1" style="edgeLabel;html=1;align=center;verticalAlign=middle;resizable=0;points=[];" parent="3wDLvt-2hIB0-m5J7Vgi-18" connectable="0" vertex="1">
          <mxGeometry x="0.84" y="-4" relative="1" as="geometry">
            <mxPoint x="6" as="offset" />
          </mxGeometry>
        </mxCell>
        <mxCell id="3wDLvt-2hIB0-m5J7Vgi-20" value="hasContextObject" style="edgeStyle=orthogonalEdgeStyle;rounded=0;orthogonalLoop=1;jettySize=auto;html=1;entryX=1;entryY=1;entryDx=0;entryDy=0;" parent="1" source="3wDLvt-2hIB0-m5J7Vgi-1" target="3wDLvt-2hIB0-m5J7Vgi-5" edge="1">
          <mxGeometry x="0.2593" relative="1" as="geometry">
            <mxPoint as="offset" />
          </mxGeometry>
        </mxCell>
        <mxCell id="3wDLvt-2hIB0-m5J7Vgi-21" style="edgeStyle=orthogonalEdgeStyle;rounded=0;orthogonalLoop=1;jettySize=auto;html=1;entryX=0;entryY=1;entryDx=0;entryDy=0;" parent="1" source="3wDLvt-2hIB0-m5J7Vgi-1" target="3wDLvt-2hIB0-m5J7Vgi-5" edge="1">
          <mxGeometry relative="1" as="geometry" />
        </mxCell>
        <mxCell id="3wDLvt-2hIB0-m5J7Vgi-22" value="hasObjectOfInterest" style="edgeLabel;html=1;align=center;verticalAlign=middle;resizable=0;points=[];" parent="3wDLvt-2hIB0-m5J7Vgi-21" connectable="0" vertex="1">
          <mxGeometry x="0.6889" y="1" relative="1" as="geometry">
            <mxPoint as="offset" />
          </mxGeometry>
        </mxCell>
        <mxCell id="3wDLvt-2hIB0-m5J7Vgi-30" style="edgeStyle=orthogonalEdgeStyle;rounded=0;orthogonalLoop=1;jettySize=auto;html=1;entryX=0.5;entryY=1;entryDx=0;entryDy=0;" parent="1" source="3wDLvt-2hIB0-m5J7Vgi-1" target="3wDLvt-2hIB0-m5J7Vgi-3" edge="1">
          <mxGeometry relative="1" as="geometry">
            <mxPoint x="658" y="354" as="targetPoint" />
          </mxGeometry>
        </mxCell>
        <mxCell id="3wDLvt-2hIB0-m5J7Vgi-31" value="hasProperty" style="edgeLabel;html=1;align=center;verticalAlign=middle;resizable=0;points=[];" parent="3wDLvt-2hIB0-m5J7Vgi-30" connectable="0" vertex="1">
          <mxGeometry x="-0.5429" y="-1" relative="1" as="geometry">
            <mxPoint x="60" y="-26" as="offset" />
          </mxGeometry>
        </mxCell>
        <mxCell id="3wDLvt-2hIB0-m5J7Vgi-1" value="Variable" style="rounded=0;whiteSpace=wrap;html=1;fillColor=#60a917;strokeColor=#2D7600;fontColor=#ffffff;" parent="1" vertex="1">
          <mxGeometry x="414" y="410" width="140" height="30" as="geometry" />
        </mxCell>
        <mxCell id="3wDLvt-2hIB0-m5J7Vgi-3" value="Property" style="rounded=0;whiteSpace=wrap;html=1;fillColor=#d5e8d4;strokeColor=#82b366;" parent="1" vertex="1">
          <mxGeometry x="584" y="320" width="140" height="30" as="geometry" />
        </mxCell>
        <mxCell id="3wDLvt-2hIB0-m5J7Vgi-7" style="edgeStyle=orthogonalEdgeStyle;rounded=0;orthogonalLoop=1;jettySize=auto;html=1;entryX=0.5;entryY=0;entryDx=0;entryDy=0;" parent="1" source="3wDLvt-2hIB0-m5J7Vgi-4" target="3wDLvt-2hIB0-m5J7Vgi-1" edge="1">
          <mxGeometry relative="1" as="geometry" />
        </mxCell>
        <mxCell id="3wDLvt-2hIB0-m5J7Vgi-8" value="hasMember" style="edgeLabel;html=1;align=center;verticalAlign=middle;resizable=0;points=[];" parent="3wDLvt-2hIB0-m5J7Vgi-7" connectable="0" vertex="1">
          <mxGeometry x="-0.1647" relative="1" as="geometry">
            <mxPoint as="offset" />
          </mxGeometry>
        </mxCell>
        <mxCell id="3wDLvt-2hIB0-m5J7Vgi-9" style="edgeStyle=orthogonalEdgeStyle;rounded=0;orthogonalLoop=1;jettySize=auto;html=1;" parent="1" source="3wDLvt-2hIB0-m5J7Vgi-4" target="3wDLvt-2hIB0-m5J7Vgi-3" edge="1">
          <mxGeometry relative="1" as="geometry" />
        </mxCell>
        <mxCell id="3wDLvt-2hIB0-m5J7Vgi-10" value="hasApplicableProperty" style="edgeLabel;html=1;align=center;verticalAlign=middle;resizable=0;points=[];" parent="3wDLvt-2hIB0-m5J7Vgi-9" connectable="0" vertex="1">
          <mxGeometry x="0.3846" relative="1" as="geometry">
            <mxPoint as="offset" />
          </mxGeometry>
        </mxCell>
        <mxCell id="3wDLvt-2hIB0-m5J7Vgi-13" style="edgeStyle=orthogonalEdgeStyle;rounded=0;orthogonalLoop=1;jettySize=auto;html=1;entryX=0.5;entryY=0;entryDx=0;entryDy=0;" parent="1" source="3wDLvt-2hIB0-m5J7Vgi-4" target="3wDLvt-2hIB0-m5J7Vgi-5" edge="1">
          <mxGeometry relative="1" as="geometry" />
        </mxCell>
        <mxCell id="3wDLvt-2hIB0-m5J7Vgi-14" value="hasApplicableMatrix" style="edgeLabel;html=1;align=center;verticalAlign=middle;resizable=0;points=[];" parent="3wDLvt-2hIB0-m5J7Vgi-13" connectable="0" vertex="1">
          <mxGeometry x="0.6711" y="1" relative="1" as="geometry">
            <mxPoint as="offset" />
          </mxGeometry>
        </mxCell>
        <mxCell id="3wDLvt-2hIB0-m5J7Vgi-15" value="hasApplicableContextObject" style="edgeStyle=orthogonalEdgeStyle;rounded=0;orthogonalLoop=1;jettySize=auto;html=1;entryX=1;entryY=0;entryDx=0;entryDy=0;" parent="1" source="3wDLvt-2hIB0-m5J7Vgi-4" target="3wDLvt-2hIB0-m5J7Vgi-5" edge="1">
          <mxGeometry x="0.0968" relative="1" as="geometry">
            <mxPoint as="offset" />
          </mxGeometry>
        </mxCell>
        <mxCell id="3wDLvt-2hIB0-m5J7Vgi-16" style="edgeStyle=orthogonalEdgeStyle;rounded=0;orthogonalLoop=1;jettySize=auto;html=1;entryX=0;entryY=0;entryDx=0;entryDy=0;" parent="1" source="3wDLvt-2hIB0-m5J7Vgi-4" target="3wDLvt-2hIB0-m5J7Vgi-5" edge="1">
          <mxGeometry relative="1" as="geometry" />
        </mxCell>
        <mxCell id="3wDLvt-2hIB0-m5J7Vgi-17" value="hasApplicableObjectOfInterest" style="edgeLabel;html=1;align=center;verticalAlign=middle;resizable=0;points=[];" parent="3wDLvt-2hIB0-m5J7Vgi-16" connectable="0" vertex="1">
          <mxGeometry x="0.5238" relative="1" as="geometry">
            <mxPoint y="10" as="offset" />
          </mxGeometry>
        </mxCell>
        <mxCell id="3wDLvt-2hIB0-m5J7Vgi-4" value="VariableSet" style="rounded=0;whiteSpace=wrap;html=1;fillColor=#fff2cc;strokeColor=#d6b656;" parent="1" vertex="1">
          <mxGeometry x="414" y="210" width="140" height="30" as="geometry" />
        </mxCell>
        <mxCell id="3wDLvt-2hIB0-m5J7Vgi-5" value="Entity" style="rounded=0;whiteSpace=wrap;html=1;fillColor=#dae8fc;strokeColor=#6c8ebf;" parent="1" vertex="1">
          <mxGeometry x="174" y="320" width="180" height="30" as="geometry" />
        </mxCell>
        <mxCell id="3wDLvt-2hIB0-m5J7Vgi-23" style="edgeStyle=orthogonalEdgeStyle;rounded=0;orthogonalLoop=1;jettySize=auto;html=1;entryX=0;entryY=0.5;entryDx=0;entryDy=0;exitX=0;exitY=0.5;exitDx=0;exitDy=0;" parent="1" source="3wDLvt-2hIB0-m5J7Vgi-6" target="3wDLvt-2hIB0-m5J7Vgi-5" edge="1">
          <mxGeometry relative="1" as="geometry">
            <mxPoint x="214" y="506" as="sourcePoint" />
            <mxPoint x="174" y="328.5" as="targetPoint" />
            <Array as="points">
              <mxPoint x="104" y="482" />
              <mxPoint x="104" y="335" />
            </Array>
          </mxGeometry>
        </mxCell>
        <mxCell id="3wDLvt-2hIB0-m5J7Vgi-24" value="constrains" style="edgeLabel;html=1;align=center;verticalAlign=middle;resizable=0;points=[];" parent="3wDLvt-2hIB0-m5J7Vgi-23" connectable="0" vertex="1">
          <mxGeometry x="-0.6296" relative="1" as="geometry">
            <mxPoint as="offset" />
          </mxGeometry>
        </mxCell>
        <mxCell id="3wDLvt-2hIB0-m5J7Vgi-6" value="Constraint" style="rounded=0;whiteSpace=wrap;html=1;fillColor=#f8cecc;strokeColor=#b85450;" parent="1" vertex="1">
          <mxGeometry x="214" y="467" width="140" height="30" as="geometry" />
        </mxCell>
        <mxCell id="3wDLvt-2hIB0-m5J7Vgi-26" value="0..n" style="edgeLabel;html=1;align=center;verticalAlign=middle;resizable=0;points=[];" parent="1" connectable="0" vertex="1">
          <mxGeometry x="287" y="382" as="geometry">
            <mxPoint x="79" y="-14" as="offset" />
          </mxGeometry>
        </mxCell>
        <mxCell id="3wDLvt-2hIB0-m5J7Vgi-27" value="1..1" style="edgeLabel;html=1;align=center;verticalAlign=middle;resizable=0;points=[];" parent="1" connectable="0" vertex="1">
          <mxGeometry x="301" y="388" as="geometry">
            <mxPoint x="-113" y="-19" as="offset" />
          </mxGeometry>
        </mxCell>
        <mxCell id="3wDLvt-2hIB0-m5J7Vgi-28" value="1..n" style="edgeLabel;html=1;align=center;verticalAlign=middle;resizable=0;points=[];" parent="1" connectable="0" vertex="1">
          <mxGeometry x="304" y="398" as="geometry">
            <mxPoint x="-151" y="-72" as="offset" />
          </mxGeometry>
        </mxCell>
        <mxCell id="3wDLvt-2hIB0-m5J7Vgi-29" value="1..1" style="edgeLabel;html=1;align=center;verticalAlign=middle;resizable=0;points=[];" parent="1" connectable="0" vertex="1">
          <mxGeometry x="296" y="413" as="geometry">
            <mxPoint x="371" y="-49" as="offset" />
          </mxGeometry>
        </mxCell>
        <mxCell id="3wDLvt-2hIB0-m5J7Vgi-32" value="0..n" style="edgeLabel;html=1;align=center;verticalAlign=middle;resizable=0;points=[];" parent="1" connectable="0" vertex="1">
          <mxGeometry x="332" y="434" as="geometry">
            <mxPoint x="45" y="64" as="offset" />
          </mxGeometry>
        </mxCell>
        <mxCell id="3wDLvt-2hIB0-m5J7Vgi-33" value="&lt;span style=&quot;color: rgb(0, 0, 0); font-family: Helvetica; font-size: 11px; font-style: normal; font-variant-ligatures: normal; font-variant-caps: normal; font-weight: 400; letter-spacing: normal; orphans: 2; text-align: center; text-indent: 0px; text-transform: none; widows: 2; word-spacing: 0px; -webkit-text-stroke-width: 0px; background-color: rgb(255, 255, 255); text-decoration-thickness: initial; text-decoration-style: initial; text-decoration-color: initial; float: none; display: inline !important;&quot;&gt;0..n&lt;/span&gt;" style="text;whiteSpace=wrap;html=1;" parent="1" vertex="1">
          <mxGeometry x="362" y="289" width="46" height="18" as="geometry" />
        </mxCell>
        <mxCell id="3wDLvt-2hIB0-m5J7Vgi-34" value="&lt;span style=&quot;color: rgb(0, 0, 0); font-family: Helvetica; font-size: 11px; font-style: normal; font-variant-ligatures: normal; font-variant-caps: normal; font-weight: 400; letter-spacing: normal; orphans: 2; text-align: center; text-indent: 0px; text-transform: none; widows: 2; word-spacing: 0px; -webkit-text-stroke-width: 0px; background-color: rgb(255, 255, 255); text-decoration-thickness: initial; text-decoration-style: initial; text-decoration-color: initial; float: none; display: inline !important;&quot;&gt;0..n&lt;/span&gt;" style="text;whiteSpace=wrap;html=1;" parent="1" vertex="1">
          <mxGeometry x="271" y="289" width="30" height="23" as="geometry" />
        </mxCell>
        <mxCell id="3wDLvt-2hIB0-m5J7Vgi-35" value="&lt;span style=&quot;color: rgb(0, 0, 0); font-family: Helvetica; font-size: 11px; font-style: normal; font-variant-ligatures: normal; font-variant-caps: normal; font-weight: 400; letter-spacing: normal; orphans: 2; text-align: center; text-indent: 0px; text-transform: none; widows: 2; word-spacing: 0px; -webkit-text-stroke-width: 0px; background-color: rgb(255, 255, 255); text-decoration-thickness: initial; text-decoration-style: initial; text-decoration-color: initial; float: none; display: inline !important;&quot;&gt;0..n&lt;/span&gt;" style="text;whiteSpace=wrap;html=1;" parent="1" vertex="1">
          <mxGeometry x="179" y="289" width="47" height="36" as="geometry" />
        </mxCell>
        <mxCell id="3wDLvt-2hIB0-m5J7Vgi-36" value="&lt;span style=&quot;color: rgb(0, 0, 0); font-family: Helvetica; font-size: 11px; font-style: normal; font-variant-ligatures: normal; font-variant-caps: normal; font-weight: 400; letter-spacing: normal; orphans: 2; text-align: center; text-indent: 0px; text-transform: none; widows: 2; word-spacing: 0px; -webkit-text-stroke-width: 0px; background-color: rgb(255, 255, 255); text-decoration-thickness: initial; text-decoration-style: initial; text-decoration-color: initial; float: none; display: inline !important;&quot;&gt;0..n&lt;/span&gt;" style="text;whiteSpace=wrap;html=1;" parent="1" vertex="1">
          <mxGeometry x="657" y="289" width="46" height="36" as="geometry" />
        </mxCell>
        <mxCell id="3wDLvt-2hIB0-m5J7Vgi-37" value="&lt;span style=&quot;color: rgb(0, 0, 0); font-family: Helvetica; font-size: 11px; font-style: normal; font-variant-ligatures: normal; font-variant-caps: normal; font-weight: 400; letter-spacing: normal; orphans: 2; text-align: center; text-indent: 0px; text-transform: none; widows: 2; word-spacing: 0px; -webkit-text-stroke-width: 0px; background-color: rgb(255, 255, 255); text-decoration-thickness: initial; text-decoration-style: initial; text-decoration-color: initial; float: none; display: inline !important;&quot;&gt;0..n&lt;/span&gt;" style="text;whiteSpace=wrap;html=1;" parent="1" vertex="1">
          <mxGeometry x="489" y="370" width="47" height="36" as="geometry" />
        </mxCell>
      </root>
    </mxGraphModel>
  </diagram>
  <diagram id="NItDljpSGTTmcbAsXMhT" name="V1.1.0">
    <mxGraphModel dx="1188" dy="657" grid="1" gridSize="10" guides="1" tooltips="1" connect="1" arrows="1" fold="1" page="1" pageScale="1" pageWidth="850" pageHeight="1100" math="0" shadow="0">
      <root>
        <mxCell id="0" />
        <mxCell id="1" parent="0" />
        <mxCell id="CQZFTqFyT4xJwMEb5l6D-1" style="edgeStyle=orthogonalEdgeStyle;rounded=0;orthogonalLoop=1;jettySize=auto;html=1;entryX=0.5;entryY=0;entryDx=0;entryDy=0;exitX=0.5;exitY=1;exitDx=0;exitDy=0;" parent="1" source="CQZFTqFyT4xJwMEb5l6D-13" target="CQZFTqFyT4xJwMEb5l6D-30" edge="1">
          <mxGeometry relative="1" as="geometry" />
        </mxCell>
        <mxCell id="CQZFTqFyT4xJwMEb5l6D-2" value="hasConstraint" style="edgeLabel;html=1;align=center;verticalAlign=middle;resizable=0;points=[];" parent="CQZFTqFyT4xJwMEb5l6D-1" connectable="0" vertex="1">
          <mxGeometry x="0.0617" y="2" relative="1" as="geometry">
            <mxPoint x="-2" y="-8" as="offset" />
          </mxGeometry>
        </mxCell>
        <mxCell id="CQZFTqFyT4xJwMEb5l6D-3" style="edgeStyle=orthogonalEdgeStyle;rounded=0;orthogonalLoop=1;jettySize=auto;html=1;entryX=0.5;entryY=1;entryDx=0;entryDy=0;" parent="1" source="CQZFTqFyT4xJwMEb5l6D-13" target="CQZFTqFyT4xJwMEb5l6D-27" edge="1">
          <mxGeometry relative="1" as="geometry" />
        </mxCell>
        <mxCell id="CQZFTqFyT4xJwMEb5l6D-4" value="hasMatrix" style="edgeLabel;html=1;align=center;verticalAlign=middle;resizable=0;points=[];" parent="CQZFTqFyT4xJwMEb5l6D-3" connectable="0" vertex="1">
          <mxGeometry x="0.4844" y="-1" relative="1" as="geometry">
            <mxPoint as="offset" />
          </mxGeometry>
        </mxCell>
        <mxCell id="CQZFTqFyT4xJwMEb5l6D-5" value="0..1" style="edgeLabel;html=1;align=center;verticalAlign=middle;resizable=0;points=[];" parent="CQZFTqFyT4xJwMEb5l6D-3" connectable="0" vertex="1">
          <mxGeometry x="0.84" y="-4" relative="1" as="geometry">
            <mxPoint x="14" as="offset" />
          </mxGeometry>
        </mxCell>
        <mxCell id="CQZFTqFyT4xJwMEb5l6D-6" value="hasContextObject" style="edgeStyle=orthogonalEdgeStyle;rounded=0;orthogonalLoop=1;jettySize=auto;html=1;entryX=1;entryY=1;entryDx=0;entryDy=0;" parent="1" source="CQZFTqFyT4xJwMEb5l6D-13" target="CQZFTqFyT4xJwMEb5l6D-27" edge="1">
          <mxGeometry x="0.2593" relative="1" as="geometry">
            <mxPoint as="offset" />
          </mxGeometry>
        </mxCell>
        <mxCell id="CQZFTqFyT4xJwMEb5l6D-7" style="edgeStyle=orthogonalEdgeStyle;rounded=0;orthogonalLoop=1;jettySize=auto;html=1;entryX=0;entryY=1;entryDx=0;entryDy=0;" parent="1" source="CQZFTqFyT4xJwMEb5l6D-13" target="CQZFTqFyT4xJwMEb5l6D-27" edge="1">
          <mxGeometry relative="1" as="geometry" />
        </mxCell>
        <mxCell id="CQZFTqFyT4xJwMEb5l6D-8" value="hasObjectOfInterest" style="edgeLabel;html=1;align=center;verticalAlign=middle;resizable=0;points=[];" parent="CQZFTqFyT4xJwMEb5l6D-7" connectable="0" vertex="1">
          <mxGeometry x="0.6889" y="1" relative="1" as="geometry">
            <mxPoint as="offset" />
          </mxGeometry>
        </mxCell>
        <mxCell id="CQZFTqFyT4xJwMEb5l6D-9" style="edgeStyle=orthogonalEdgeStyle;rounded=0;orthogonalLoop=1;jettySize=auto;html=1;entryX=0.25;entryY=1;entryDx=0;entryDy=0;" parent="1" source="CQZFTqFyT4xJwMEb5l6D-13" target="CQZFTqFyT4xJwMEb5l6D-14" edge="1">
          <mxGeometry relative="1" as="geometry">
            <mxPoint x="594" y="344" as="targetPoint" />
          </mxGeometry>
        </mxCell>
        <mxCell id="CQZFTqFyT4xJwMEb5l6D-10" value="hasProperty" style="edgeLabel;html=1;align=center;verticalAlign=middle;resizable=0;points=[];" parent="CQZFTqFyT4xJwMEb5l6D-9" connectable="0" vertex="1">
          <mxGeometry x="-0.5429" y="-1" relative="1" as="geometry">
            <mxPoint x="165" y="-38" as="offset" />
          </mxGeometry>
        </mxCell>
        <mxCell id="CQZFTqFyT4xJwMEb5l6D-11" style="edgeStyle=orthogonalEdgeStyle;rounded=0;orthogonalLoop=1;jettySize=auto;html=1;exitX=1;exitY=0.5;exitDx=0;exitDy=0;entryX=0.25;entryY=1;entryDx=0;entryDy=0;" parent="1" source="CQZFTqFyT4xJwMEb5l6D-13" target="CQZFTqFyT4xJwMEb5l6D-41" edge="1">
          <mxGeometry relative="1" as="geometry" />
        </mxCell>
        <mxCell id="CQZFTqFyT4xJwMEb5l6D-12" value="hasStatisticalModifier" style="edgeLabel;html=1;align=center;verticalAlign=middle;resizable=0;points=[];" parent="CQZFTqFyT4xJwMEb5l6D-11" vertex="1" connectable="0">
          <mxGeometry x="0.73" y="1" relative="1" as="geometry">
            <mxPoint x="-3" y="22" as="offset" />
          </mxGeometry>
        </mxCell>
        <mxCell id="CQZFTqFyT4xJwMEb5l6D-13" value="Variable" style="rounded=0;whiteSpace=wrap;html=1;fillColor=#60a917;strokeColor=#2D7600;fontColor=#ffffff;" parent="1" vertex="1">
          <mxGeometry x="350" y="400" width="140" height="30" as="geometry" />
        </mxCell>
        <mxCell id="CQZFTqFyT4xJwMEb5l6D-14" value="Property" style="rounded=0;whiteSpace=wrap;html=1;fillColor=#d5e8d4;strokeColor=#82b366;" parent="1" vertex="1">
          <mxGeometry x="696" y="310" width="140" height="30" as="geometry" />
        </mxCell>
        <mxCell id="CQZFTqFyT4xJwMEb5l6D-15" style="edgeStyle=orthogonalEdgeStyle;rounded=0;orthogonalLoop=1;jettySize=auto;html=1;entryX=0.5;entryY=0;entryDx=0;entryDy=0;" parent="1" source="CQZFTqFyT4xJwMEb5l6D-26" target="CQZFTqFyT4xJwMEb5l6D-13" edge="1">
          <mxGeometry relative="1" as="geometry" />
        </mxCell>
        <mxCell id="CQZFTqFyT4xJwMEb5l6D-16" value="hasMember" style="edgeLabel;html=1;align=center;verticalAlign=middle;resizable=0;points=[];" parent="CQZFTqFyT4xJwMEb5l6D-15" connectable="0" vertex="1">
          <mxGeometry x="-0.1647" relative="1" as="geometry">
            <mxPoint as="offset" />
          </mxGeometry>
        </mxCell>
        <mxCell id="CQZFTqFyT4xJwMEb5l6D-17" style="edgeStyle=orthogonalEdgeStyle;rounded=0;orthogonalLoop=1;jettySize=auto;html=1;" parent="1" source="CQZFTqFyT4xJwMEb5l6D-26" target="CQZFTqFyT4xJwMEb5l6D-14" edge="1">
          <mxGeometry relative="1" as="geometry" />
        </mxCell>
        <mxCell id="CQZFTqFyT4xJwMEb5l6D-18" value="hasApplicableProperty" style="edgeLabel;html=1;align=center;verticalAlign=middle;resizable=0;points=[];" parent="CQZFTqFyT4xJwMEb5l6D-17" connectable="0" vertex="1">
          <mxGeometry x="0.3846" relative="1" as="geometry">
            <mxPoint x="19" y="45" as="offset" />
          </mxGeometry>
        </mxCell>
        <mxCell id="CQZFTqFyT4xJwMEb5l6D-19" style="edgeStyle=orthogonalEdgeStyle;rounded=0;orthogonalLoop=1;jettySize=auto;html=1;entryX=0.5;entryY=0;entryDx=0;entryDy=0;" parent="1" source="CQZFTqFyT4xJwMEb5l6D-26" target="CQZFTqFyT4xJwMEb5l6D-27" edge="1">
          <mxGeometry relative="1" as="geometry" />
        </mxCell>
        <mxCell id="CQZFTqFyT4xJwMEb5l6D-20" value="hasApplicableMatrix" style="edgeLabel;html=1;align=center;verticalAlign=middle;resizable=0;points=[];" parent="CQZFTqFyT4xJwMEb5l6D-19" connectable="0" vertex="1">
          <mxGeometry x="0.6711" y="1" relative="1" as="geometry">
            <mxPoint as="offset" />
          </mxGeometry>
        </mxCell>
        <mxCell id="CQZFTqFyT4xJwMEb5l6D-21" value="hasApplicableContextObject" style="edgeStyle=orthogonalEdgeStyle;rounded=0;orthogonalLoop=1;jettySize=auto;html=1;entryX=1;entryY=0;entryDx=0;entryDy=0;" parent="1" source="CQZFTqFyT4xJwMEb5l6D-26" target="CQZFTqFyT4xJwMEb5l6D-27" edge="1">
          <mxGeometry x="0.0968" relative="1" as="geometry">
            <mxPoint as="offset" />
          </mxGeometry>
        </mxCell>
        <mxCell id="CQZFTqFyT4xJwMEb5l6D-22" style="edgeStyle=orthogonalEdgeStyle;rounded=0;orthogonalLoop=1;jettySize=auto;html=1;entryX=0;entryY=0;entryDx=0;entryDy=0;" parent="1" source="CQZFTqFyT4xJwMEb5l6D-26" target="CQZFTqFyT4xJwMEb5l6D-27" edge="1">
          <mxGeometry relative="1" as="geometry" />
        </mxCell>
        <mxCell id="CQZFTqFyT4xJwMEb5l6D-23" value="hasApplicableObjectOfInterest" style="edgeLabel;html=1;align=center;verticalAlign=middle;resizable=0;points=[];" parent="CQZFTqFyT4xJwMEb5l6D-22" connectable="0" vertex="1">
          <mxGeometry x="0.5238" relative="1" as="geometry">
            <mxPoint y="10" as="offset" />
          </mxGeometry>
        </mxCell>
        <mxCell id="CQZFTqFyT4xJwMEb5l6D-24" style="edgeStyle=orthogonalEdgeStyle;rounded=0;orthogonalLoop=1;jettySize=auto;html=1;exitX=1;exitY=0.5;exitDx=0;exitDy=0;" parent="1" source="CQZFTqFyT4xJwMEb5l6D-26" target="CQZFTqFyT4xJwMEb5l6D-41" edge="1">
          <mxGeometry relative="1" as="geometry" />
        </mxCell>
        <mxCell id="CQZFTqFyT4xJwMEb5l6D-25" value="hasApplicableStatisticalModifier" style="edgeLabel;html=1;align=center;verticalAlign=middle;resizable=0;points=[];" parent="CQZFTqFyT4xJwMEb5l6D-24" vertex="1" connectable="0">
          <mxGeometry x="0.69" relative="1" as="geometry">
            <mxPoint y="-23" as="offset" />
          </mxGeometry>
        </mxCell>
        <mxCell id="CQZFTqFyT4xJwMEb5l6D-26" value="VariableSet" style="rounded=0;whiteSpace=wrap;html=1;fillColor=#fff2cc;strokeColor=#d6b656;" parent="1" vertex="1">
          <mxGeometry x="350" y="200" width="140" height="30" as="geometry" />
        </mxCell>
        <mxCell id="CQZFTqFyT4xJwMEb5l6D-27" value="Entity" style="rounded=0;whiteSpace=wrap;html=1;fillColor=#dae8fc;strokeColor=#6c8ebf;" parent="1" vertex="1">
          <mxGeometry x="110" y="310" width="180" height="30" as="geometry" />
        </mxCell>
        <mxCell id="CQZFTqFyT4xJwMEb5l6D-28" style="edgeStyle=orthogonalEdgeStyle;rounded=0;orthogonalLoop=1;jettySize=auto;html=1;entryX=0;entryY=0.5;entryDx=0;entryDy=0;exitX=0;exitY=0.5;exitDx=0;exitDy=0;" parent="1" source="CQZFTqFyT4xJwMEb5l6D-30" target="CQZFTqFyT4xJwMEb5l6D-27" edge="1">
          <mxGeometry relative="1" as="geometry">
            <mxPoint x="150" y="496" as="sourcePoint" />
            <mxPoint x="110" y="318.5" as="targetPoint" />
            <Array as="points">
              <mxPoint x="40" y="495" />
              <mxPoint x="40" y="325" />
            </Array>
          </mxGeometry>
        </mxCell>
        <mxCell id="CQZFTqFyT4xJwMEb5l6D-29" value="constrains" style="edgeLabel;html=1;align=center;verticalAlign=middle;resizable=0;points=[];" parent="CQZFTqFyT4xJwMEb5l6D-28" connectable="0" vertex="1">
          <mxGeometry x="-0.6296" relative="1" as="geometry">
            <mxPoint x="-208" y="-15" as="offset" />
          </mxGeometry>
        </mxCell>
        <mxCell id="CQZFTqFyT4xJwMEb5l6D-30" value="Constraint" style="rounded=0;whiteSpace=wrap;html=1;fillColor=#f8cecc;strokeColor=#b85450;" parent="1" vertex="1">
          <mxGeometry x="350" y="480" width="140" height="30" as="geometry" />
        </mxCell>
        <mxCell id="CQZFTqFyT4xJwMEb5l6D-31" value="0..n" style="edgeLabel;html=1;align=center;verticalAlign=middle;resizable=0;points=[];" parent="1" connectable="0" vertex="1">
          <mxGeometry x="229" y="372" as="geometry">
            <mxPoint x="79" y="-14" as="offset" />
          </mxGeometry>
        </mxCell>
        <mxCell id="CQZFTqFyT4xJwMEb5l6D-32" value="1..1" style="edgeLabel;html=1;align=center;verticalAlign=middle;resizable=0;points=[];" parent="1" connectable="0" vertex="1">
          <mxGeometry x="237" y="378" as="geometry">
            <mxPoint x="-113" y="-19" as="offset" />
          </mxGeometry>
        </mxCell>
        <mxCell id="CQZFTqFyT4xJwMEb5l6D-36" value="&lt;span style=&quot;color: rgb(0, 0, 0); font-family: Helvetica; font-size: 11px; font-style: normal; font-variant-ligatures: normal; font-variant-caps: normal; font-weight: 400; letter-spacing: normal; orphans: 2; text-align: center; text-indent: 0px; text-transform: none; widows: 2; word-spacing: 0px; -webkit-text-stroke-width: 0px; background-color: rgb(255, 255, 255); text-decoration-thickness: initial; text-decoration-style: initial; text-decoration-color: initial; float: none; display: inline !important;&quot;&gt;0..n&lt;/span&gt;" style="text;whiteSpace=wrap;html=1;" parent="1" vertex="1">
          <mxGeometry x="298" y="279" width="30" height="23" as="geometry" />
        </mxCell>
        <mxCell id="CQZFTqFyT4xJwMEb5l6D-37" value="&lt;span style=&quot;color: rgb(0, 0, 0); font-family: Helvetica; font-size: 11px; font-style: normal; font-variant-ligatures: normal; font-variant-caps: normal; font-weight: 400; letter-spacing: normal; orphans: 2; text-align: center; text-indent: 0px; text-transform: none; widows: 2; word-spacing: 0px; -webkit-text-stroke-width: 0px; background-color: rgb(255, 255, 255); text-decoration-thickness: initial; text-decoration-style: initial; text-decoration-color: initial; float: none; display: inline !important;&quot;&gt;0..n&lt;/span&gt;" style="text;whiteSpace=wrap;html=1;" parent="1" vertex="1">
          <mxGeometry x="207" y="279" width="30" height="23" as="geometry" />
        </mxCell>
        <mxCell id="CQZFTqFyT4xJwMEb5l6D-38" value="&lt;span style=&quot;color: rgb(0, 0, 0); font-family: Helvetica; font-size: 11px; font-style: normal; font-variant-ligatures: normal; font-variant-caps: normal; font-weight: 400; letter-spacing: normal; orphans: 2; text-align: center; text-indent: 0px; text-transform: none; widows: 2; word-spacing: 0px; -webkit-text-stroke-width: 0px; background-color: rgb(255, 255, 255); text-decoration-thickness: initial; text-decoration-style: initial; text-decoration-color: initial; float: none; display: inline !important;&quot;&gt;0..n&lt;/span&gt;" style="text;whiteSpace=wrap;html=1;" parent="1" vertex="1">
          <mxGeometry x="115" y="279" width="47" height="36" as="geometry" />
        </mxCell>
        <mxCell id="CQZFTqFyT4xJwMEb5l6D-39" value="&lt;span style=&quot;color: rgb(0, 0, 0); font-family: Helvetica; font-size: 11px; font-style: normal; font-variant-ligatures: normal; font-variant-caps: normal; font-weight: 400; letter-spacing: normal; orphans: 2; text-align: center; text-indent: 0px; text-transform: none; widows: 2; word-spacing: 0px; -webkit-text-stroke-width: 0px; background-color: rgb(255, 255, 255); text-decoration-thickness: initial; text-decoration-style: initial; text-decoration-color: initial; float: none; display: inline !important;&quot;&gt;0..n&lt;/span&gt;" style="text;whiteSpace=wrap;html=1;" parent="1" vertex="1">
          <mxGeometry x="577" y="279" width="30" height="23" as="geometry" />
        </mxCell>
        <mxCell id="CQZFTqFyT4xJwMEb5l6D-40" value="&lt;span style=&quot;color: rgb(0, 0, 0); font-family: Helvetica; font-size: 11px; font-style: normal; font-variant-ligatures: normal; font-variant-caps: normal; font-weight: 400; letter-spacing: normal; orphans: 2; text-align: center; text-indent: 0px; text-transform: none; widows: 2; word-spacing: 0px; -webkit-text-stroke-width: 0px; background-color: rgb(255, 255, 255); text-decoration-thickness: initial; text-decoration-style: initial; text-decoration-color: initial; float: none; display: inline !important;&quot;&gt;0..n&lt;/span&gt;" style="text;whiteSpace=wrap;html=1;" parent="1" vertex="1">
          <mxGeometry x="425" y="360" width="47" height="36" as="geometry" />
        </mxCell>
        <mxCell id="CQZFTqFyT4xJwMEb5l6D-41" value="StatisticalModifier" style="rounded=0;whiteSpace=wrap;html=1;fillColor=#DDDDDD;strokeColor=#666666;fontColor=default;" parent="1" vertex="1">
          <mxGeometry x="499" y="310" width="140" height="30" as="geometry" />
        </mxCell>
        <mxCell id="CQZFTqFyT4xJwMEb5l6D-42" value="&lt;span style=&quot;color: rgb(0, 0, 0); font-family: Helvetica; font-size: 11px; font-style: normal; font-variant-ligatures: normal; font-variant-caps: normal; font-weight: 400; letter-spacing: normal; orphans: 2; text-align: center; text-indent: 0px; text-transform: none; widows: 2; word-spacing: 0px; -webkit-text-stroke-width: 0px; background-color: rgb(255, 255, 255); text-decoration-thickness: initial; text-decoration-style: initial; text-decoration-color: initial; float: none; display: inline !important;&quot;&gt;0..n&lt;/span&gt;" style="text;whiteSpace=wrap;html=1;" parent="1" vertex="1">
          <mxGeometry x="777" y="279" width="30" height="23" as="geometry" />
        </mxCell>
        <mxCell id="CQZFTqFyT4xJwMEb5l6D-47" value="&lt;span style=&quot;color: rgb(0, 0, 0); font-family: Helvetica; font-size: 11px; font-style: normal; font-variant-ligatures: normal; font-variant-caps: normal; font-weight: 400; letter-spacing: normal; orphans: 2; text-align: center; text-indent: 0px; text-transform: none; widows: 2; word-spacing: 0px; -webkit-text-stroke-width: 0px; background-color: rgb(255, 255, 255); text-decoration-thickness: initial; text-decoration-style: initial; text-decoration-color: initial; float: none; display: inline !important;&quot;&gt;0..n&lt;/span&gt;" style="text;whiteSpace=wrap;html=1;" parent="1" vertex="1">
          <mxGeometry x="425" y="457" width="30" height="23" as="geometry" />
        </mxCell>
        <mxCell id="CQZFTqFyT4xJwMEb5l6D-49" style="edgeStyle=orthogonalEdgeStyle;rounded=0;orthogonalLoop=1;jettySize=auto;html=1;exitX=1;exitY=0.5;exitDx=0;exitDy=0;entryX=0.801;entryY=0.969;entryDx=0;entryDy=0;entryPerimeter=0;" parent="1" source="CQZFTqFyT4xJwMEb5l6D-30" target="CQZFTqFyT4xJwMEb5l6D-14" edge="1">
          <mxGeometry relative="1" as="geometry" />
        </mxCell>
        <mxCell id="CQZFTqFyT4xJwMEb5l6D-50" value="constrains" style="edgeLabel;html=1;align=center;verticalAlign=middle;resizable=0;points=[];" parent="CQZFTqFyT4xJwMEb5l6D-49" vertex="1" connectable="0">
          <mxGeometry x="-0.4346" y="-1" relative="1" as="geometry">
            <mxPoint x="186" y="-16" as="offset" />
          </mxGeometry>
        </mxCell>
        <mxCell id="CQZFTqFyT4xJwMEb5l6D-51" value="&lt;span style=&quot;color: rgb(0, 0, 0); font-family: Helvetica; font-size: 11px; font-style: normal; font-variant-ligatures: normal; font-variant-caps: normal; font-weight: 400; letter-spacing: normal; orphans: 2; text-align: center; text-indent: 0px; text-transform: none; widows: 2; word-spacing: 0px; -webkit-text-stroke-width: 0px; background-color: rgb(255, 255, 255); text-decoration-thickness: initial; text-decoration-style: initial; text-decoration-color: initial; float: none; display: inline !important;&quot;&gt;0..n&lt;/span&gt;" style="text;whiteSpace=wrap;html=1;" parent="1" vertex="1">
          <mxGeometry x="77" y="302" width="30" height="23" as="geometry" />
        </mxCell>
        <mxCell id="CQZFTqFyT4xJwMEb5l6D-52" value="&lt;span style=&quot;color: rgb(0, 0, 0); font-family: Helvetica; font-size: 11px; font-style: normal; font-variant-ligatures: normal; font-variant-caps: normal; font-weight: 400; letter-spacing: normal; orphans: 2; text-align: center; text-indent: 0px; text-transform: none; widows: 2; word-spacing: 0px; -webkit-text-stroke-width: 0px; background-color: rgb(255, 255, 255); text-decoration-thickness: initial; text-decoration-style: initial; text-decoration-color: initial; float: none; display: inline !important;&quot;&gt;0..n&lt;/span&gt;" style="text;whiteSpace=wrap;html=1;" parent="1" vertex="1">
          <mxGeometry x="810" y="346" width="30" height="23" as="geometry" />
        </mxCell>
        <mxCell id="CQZFTqFyT4xJwMEb5l6D-53" value="Entity" style="rounded=0;whiteSpace=wrap;html=1;fillColor=#dae8fc;strokeColor=#6c8ebf;" parent="1" vertex="1">
          <mxGeometry x="350" y="580" width="140" height="30" as="geometry" />
        </mxCell>
        <mxCell id="CQZFTqFyT4xJwMEb5l6D-59" style="edgeStyle=orthogonalEdgeStyle;rounded=0;orthogonalLoop=1;jettySize=auto;html=1;exitX=0.5;exitY=0;exitDx=0;exitDy=0;entryX=0.25;entryY=1;entryDx=0;entryDy=0;endSize=10;endArrow=block;endFill=0;" parent="1" source="CQZFTqFyT4xJwMEb5l6D-54" target="CQZFTqFyT4xJwMEb5l6D-55" edge="1">
          <mxGeometry relative="1" as="geometry" />
        </mxCell>
        <mxCell id="DJd9TnJk-4qeM39CunHX-7" style="edgeStyle=orthogonalEdgeStyle;rounded=0;orthogonalLoop=1;jettySize=auto;html=1;exitX=0;exitY=0.5;exitDx=0;exitDy=0;entryX=0.5;entryY=1;entryDx=0;entryDy=0;endArrow=none;startFill=0;" edge="1" parent="1" source="CQZFTqFyT4xJwMEb5l6D-54" target="DJd9TnJk-4qeM39CunHX-6">
          <mxGeometry relative="1" as="geometry" />
        </mxCell>
        <mxCell id="CQZFTqFyT4xJwMEb5l6D-54" value="SymmetricSystem" style="rounded=0;whiteSpace=wrap;html=1;fillColor=#dae8fc;strokeColor=#6c8ebf;" parent="1" vertex="1">
          <mxGeometry x="240" y="730" width="140" height="30" as="geometry" />
        </mxCell>
        <mxCell id="CQZFTqFyT4xJwMEb5l6D-58" style="edgeStyle=orthogonalEdgeStyle;rounded=0;orthogonalLoop=1;jettySize=auto;html=1;exitX=0.5;exitY=0;exitDx=0;exitDy=0;entryX=0.5;entryY=1;entryDx=0;entryDy=0;endArrow=block;endFill=0;endSize=10;" parent="1" source="CQZFTqFyT4xJwMEb5l6D-55" target="CQZFTqFyT4xJwMEb5l6D-53" edge="1">
          <mxGeometry relative="1" as="geometry" />
        </mxCell>
        <mxCell id="CQZFTqFyT4xJwMEb5l6D-55" value="System" style="rounded=0;whiteSpace=wrap;html=1;fillColor=#dae8fc;strokeColor=#6c8ebf;" parent="1" vertex="1">
          <mxGeometry x="350" y="650" width="140" height="30" as="geometry" />
        </mxCell>
        <mxCell id="CQZFTqFyT4xJwMEb5l6D-60" style="edgeStyle=orthogonalEdgeStyle;rounded=0;orthogonalLoop=1;jettySize=auto;html=1;exitX=0.5;exitY=0;exitDx=0;exitDy=0;entryX=0.75;entryY=1;entryDx=0;entryDy=0;endSize=10;endArrow=block;endFill=0;" parent="1" source="CQZFTqFyT4xJwMEb5l6D-56" target="CQZFTqFyT4xJwMEb5l6D-55" edge="1">
          <mxGeometry relative="1" as="geometry" />
        </mxCell>
        <mxCell id="DJd9TnJk-4qeM39CunHX-3" style="edgeStyle=orthogonalEdgeStyle;rounded=0;orthogonalLoop=1;jettySize=auto;html=1;exitX=1;exitY=0.5;exitDx=0;exitDy=0;entryX=0.5;entryY=1;entryDx=0;entryDy=0;endArrow=none;startFill=0;" edge="1" parent="1" source="CQZFTqFyT4xJwMEb5l6D-56" target="DJd9TnJk-4qeM39CunHX-2">
          <mxGeometry relative="1" as="geometry" />
        </mxCell>
        <mxCell id="CQZFTqFyT4xJwMEb5l6D-56" value="AsymmetricSystem" style="rounded=0;whiteSpace=wrap;html=1;fillColor=#dae8fc;strokeColor=#6c8ebf;" parent="1" vertex="1">
          <mxGeometry x="460" y="730" width="140" height="30" as="geometry" />
        </mxCell>
        <mxCell id="pNMBNl2QG0x356sCMZ6s-1" style="edgeStyle=orthogonalEdgeStyle;rounded=0;orthogonalLoop=1;jettySize=auto;html=1;exitX=1;exitY=0.5;exitDx=0;exitDy=0;" parent="1" source="CQZFTqFyT4xJwMEb5l6D-30" edge="1">
          <mxGeometry relative="1" as="geometry">
            <mxPoint x="620" y="340" as="targetPoint" />
          </mxGeometry>
        </mxCell>
        <mxCell id="pNMBNl2QG0x356sCMZ6s-3" value="constrains" style="edgeLabel;html=1;align=center;verticalAlign=middle;resizable=0;points=[];" parent="pNMBNl2QG0x356sCMZ6s-1" vertex="1" connectable="0">
          <mxGeometry x="0.0843" y="1" relative="1" as="geometry">
            <mxPoint y="10" as="offset" />
          </mxGeometry>
        </mxCell>
        <mxCell id="pNMBNl2QG0x356sCMZ6s-2" value="&lt;span style=&quot;color: rgb(0, 0, 0); font-family: Helvetica; font-size: 11px; font-style: normal; font-variant-ligatures: normal; font-variant-caps: normal; font-weight: 400; letter-spacing: normal; orphans: 2; text-align: center; text-indent: 0px; text-transform: none; widows: 2; word-spacing: 0px; -webkit-text-stroke-width: 0px; background-color: rgb(255, 255, 255); text-decoration-thickness: initial; text-decoration-style: initial; text-decoration-color: initial; float: none; display: inline !important;&quot;&gt;0..n&lt;/span&gt;" style="text;whiteSpace=wrap;html=1;" parent="1" vertex="1">
          <mxGeometry x="630" y="346" width="30" height="23" as="geometry" />
        </mxCell>
        <mxCell id="DJd9TnJk-4qeM39CunHX-5" style="edgeStyle=orthogonalEdgeStyle;rounded=0;orthogonalLoop=1;jettySize=auto;html=1;exitX=0.5;exitY=0;exitDx=0;exitDy=0;entryX=1;entryY=0.5;entryDx=0;entryDy=0;" edge="1" parent="1" source="DJd9TnJk-4qeM39CunHX-1" target="CQZFTqFyT4xJwMEb5l6D-53">
          <mxGeometry relative="1" as="geometry" />
        </mxCell>
        <mxCell id="DJd9TnJk-4qeM39CunHX-1" value="&lt;div&gt;hasNumerator&lt;/div&gt;&lt;div&gt;hasDenominator&lt;/div&gt;" style="rounded=0;whiteSpace=wrap;html=1;dashed=1;dashPattern=1 2;fontSize=11;fillColor=none;" vertex="1" parent="1">
          <mxGeometry x="570" y="630" width="100" height="30" as="geometry" />
        </mxCell>
        <mxCell id="DJd9TnJk-4qeM39CunHX-4" style="edgeStyle=orthogonalEdgeStyle;rounded=0;orthogonalLoop=1;jettySize=auto;html=1;exitX=0.5;exitY=0;exitDx=0;exitDy=0;entryX=0.5;entryY=1;entryDx=0;entryDy=0;endArrow=none;startFill=0;" edge="1" parent="1" source="DJd9TnJk-4qeM39CunHX-2" target="DJd9TnJk-4qeM39CunHX-1">
          <mxGeometry relative="1" as="geometry" />
        </mxCell>
        <mxCell id="DJd9TnJk-4qeM39CunHX-2" value="&lt;div&gt;hasSource&lt;/div&gt;&lt;div&gt;hasTarget&lt;/div&gt;" style="rounded=0;whiteSpace=wrap;html=1;dashed=1;dashPattern=1 2;fontSize=11;fillColor=none;" vertex="1" parent="1">
          <mxGeometry x="570" y="670" width="100" height="30" as="geometry" />
        </mxCell>
        <mxCell id="DJd9TnJk-4qeM39CunHX-8" style="edgeStyle=orthogonalEdgeStyle;rounded=0;orthogonalLoop=1;jettySize=auto;html=1;exitX=0.5;exitY=0;exitDx=0;exitDy=0;entryX=0;entryY=0.5;entryDx=0;entryDy=0;" edge="1" parent="1" source="DJd9TnJk-4qeM39CunHX-6" target="CQZFTqFyT4xJwMEb5l6D-53">
          <mxGeometry relative="1" as="geometry" />
        </mxCell>
        <mxCell id="DJd9TnJk-4qeM39CunHX-6" value="hasPart" style="rounded=0;whiteSpace=wrap;html=1;dashed=1;dashPattern=1 2;fontSize=11;fillColor=none;" vertex="1" parent="1">
          <mxGeometry x="169" y="655" width="100" height="20" as="geometry" />
        </mxCell>
        <mxCell id="DJd9TnJk-4qeM39CunHX-9" value="&lt;span style=&quot;color: rgb(0, 0, 0); font-family: Helvetica; font-size: 11px; font-style: normal; font-variant-ligatures: normal; font-variant-caps: normal; font-weight: 400; letter-spacing: normal; text-align: center; text-indent: 0px; text-transform: none; word-spacing: 0px; -webkit-text-stroke-width: 0px; background-color: rgb(255, 255, 255); text-decoration-thickness: initial; text-decoration-style: initial; text-decoration-color: initial; float: none; display: inline !important;&quot;&gt;0..1&lt;/span&gt;" style="text;whiteSpace=wrap;html=1;" vertex="1" parent="1">
          <mxGeometry x="540" y="346" width="30" height="23" as="geometry" />
        </mxCell>
        <mxCell id="DJd9TnJk-4qeM39CunHX-10" value="&lt;span style=&quot;color: rgb(0, 0, 0); font-family: Helvetica; font-size: 11px; font-style: normal; font-variant-ligatures: normal; font-variant-caps: normal; font-weight: 400; letter-spacing: normal; text-align: center; text-indent: 0px; text-transform: none; word-spacing: 0px; -webkit-text-stroke-width: 0px; background-color: rgb(255, 255, 255); text-decoration-thickness: initial; text-decoration-style: initial; text-decoration-color: initial; float: none; display: inline !important;&quot;&gt;1..1&lt;/span&gt;" style="text;whiteSpace=wrap;html=1;" vertex="1" parent="1">
          <mxGeometry x="740" y="346" width="30" height="23" as="geometry" />
        </mxCell>
      </root>
    </mxGraphModel>
  </diagram>
</mxfile>
